<svg width="22" height="22" viewBox="0 0 22 22" fill="none" xmlns="http://www.w3.org/2000/svg">
<path d="M10.9983 0C10.1315 0 9.40266 0.618074 9.22623 1.43425H3.54188H3.5412H3.53883C3.41099 1.43493 3.29195 1.50012 3.22252 1.60765C3.22252 1.60765 2.42546 2.83786 1.62676 4.29023C1.22747 5.01633 0.828529 5.7961 0.523742 6.51865C0.218956 7.24119 0 7.8884 0 8.43954C0 10.3918 1.58969 11.9815 3.54191 11.9815C5.49414 11.9815 7.08383 10.3918 7.08383 8.43954C7.08383 7.88818 6.86488 7.24102 6.56009 6.51865C6.25529 5.7961 5.85636 5.01633 5.45707 4.29023C4.95197 3.37175 4.53066 2.67868 4.22804 2.19287H9.22575C9.3751 2.88814 9.92527 3.43881 10.6207 3.58785V19.2781H7.48975C7.47671 19.2774 7.46367 19.2774 7.45047 19.2781C7.25624 19.2976 7.10842 19.4615 7.10909 19.6567V21.6192C7.10858 21.7203 7.14855 21.8175 7.22017 21.8889C7.29163 21.9604 7.38866 22.0003 7.48975 22H14.5093C14.61 21.9998 14.7065 21.9595 14.7776 21.8881C14.8486 21.8166 14.8882 21.7199 14.8879 21.6192V19.6567C14.8874 19.4478 14.7182 19.2786 14.5093 19.2781H11.3793V3.58742C12.0733 3.43739 12.6222 2.88741 12.7714 2.19313H17.7721C17.4695 2.67895 17.0476 3.37184 16.5424 4.2905C16.1432 5.0166 15.7412 5.79637 15.4364 6.51891C15.1316 7.24146 14.9133 7.88866 14.9133 8.4398C14.9133 10.392 16.503 11.9817 18.4552 11.9817C20.4074 11.9817 22 10.392 22 8.4398C22 7.88844 21.778 7.24128 21.4732 6.51891C21.1684 5.79637 20.7695 5.0166 20.3702 4.2905C19.5715 2.8383 18.7744 1.60792 18.7744 1.60792V1.60808C18.7045 1.49971 18.5841 1.43435 18.4553 1.43469H12.7709C12.5945 0.618508 11.8656 0.000433833 10.9988 0.000433833L10.9983 0ZM10.9983 0.759306C11.5859 0.759306 12.0539 1.22735 12.0539 1.81495C12.0539 2.40255 11.5859 2.8699 10.9983 2.8699C10.4107 2.8699 9.94266 2.40255 9.94266 1.81495C9.94266 1.22735 10.4107 0.759306 10.9983 0.759306ZM18.4578 2.55358C18.6859 2.91256 19.0821 3.51927 19.7061 4.6538C20.0976 5.36569 20.4874 6.13193 20.776 6.8155C20.9536 7.23663 21.0821 7.62323 21.1597 7.94089H15.7532C15.8307 7.62339 15.9586 7.23681 16.1362 6.8155C16.4246 6.13188 16.8144 5.36569 17.2061 4.6538C17.8304 3.51844 18.2302 2.91203 18.4581 2.55358H18.4578ZM3.54184 2.55645C3.7706 2.91646 4.16754 3.52028 4.79081 4.65382C5.1823 5.3657 5.57144 6.13195 5.85979 6.81552C6.03743 7.23665 6.16595 7.62325 6.2435 7.94091H0.839185C0.915891 7.62341 1.04306 7.23683 1.22069 6.81552C1.50906 6.1319 1.90105 5.3657 2.29271 4.65382C2.9162 3.52032 3.3131 2.91647 3.54168 2.55645H3.54184ZM0.771057 8.69948H6.31236C6.18197 10.1186 4.99615 11.2227 3.54175 11.2227C2.08735 11.2227 0.901538 10.1185 0.770971 8.69948H0.771057ZM15.684 8.69948H21.2274C21.0967 10.1186 19.9089 11.2227 18.4545 11.2227C17 11.2227 15.8142 10.1185 15.6837 8.69948H15.684ZM7.86772 20.037H14.1286V21.2409H7.86772V20.037Z" fill="black"/>
</svg>
