<svg width="27" height="27" viewBox="0 0 27 27" fill="none" xmlns="http://www.w3.org/2000/svg">
<path d="M13.4861 0C12.9605 0.00847862 12.537 0.436371 12.537 0.963914V0.978233V0.97748V17.927L6.47451 11.8615C6.29994 11.6869 6.05945 11.5797 5.79373 11.5797C5.26135 11.5797 4.8303 12.0119 4.8303 12.5436C4.8303 12.8104 4.93821 13.0508 5.11297 13.2257L12.8199 20.9364C12.8223 20.9388 12.8267 20.9422 12.8308 20.9456L12.8325 20.9473C12.8417 20.9566 12.8519 20.966 12.8621 20.9752L12.8628 20.976C12.8754 20.9878 12.889 20.9988 12.9025 21.0106L12.9042 21.0123C12.911 21.0174 12.9202 21.0242 12.9295 21.031L12.9319 21.0327C12.9445 21.0419 12.9605 21.0538 12.9775 21.0647L12.9816 21.0672C12.9901 21.073 13.0027 21.0807 13.0163 21.0883L13.0204 21.0907C13.0306 21.0965 13.0449 21.105 13.0602 21.1126L13.0653 21.115C13.0728 21.1192 13.0863 21.1259 13.0999 21.131L13.1057 21.1335C13.1142 21.1376 13.1293 21.1444 13.1445 21.1512L13.1504 21.1536C13.1596 21.1578 13.1766 21.1629 13.1933 21.1689L13.2001 21.1706C13.2069 21.173 13.2204 21.1781 13.2338 21.1825L13.2406 21.1842C13.2498 21.1866 13.2668 21.1917 13.2835 21.1951L13.2894 21.1958C13.2978 21.1983 13.3138 21.2017 13.3291 21.2043L13.3349 21.2051C13.3442 21.2068 13.3602 21.2092 13.3764 21.2109L13.3814 21.2117C13.3933 21.2134 13.4101 21.2151 13.427 21.2158H13.4295C13.4447 21.2166 13.4615 21.2175 13.4792 21.2175H13.4799C13.4867 21.2175 13.4952 21.2183 13.5027 21.2183C13.5103 21.2183 13.5187 21.2183 13.5272 21.2175H13.5265C13.556 21.2168 13.5846 21.2151 13.6125 21.2117L13.6084 21.2124C13.6159 21.2117 13.6176 21.2107 13.6202 21.2107L13.6144 21.2115C13.6396 21.2081 13.66 21.2047 13.6801 21.2006L13.6743 21.2013C13.6961 21.1972 13.7114 21.1938 13.7266 21.1904L13.7199 21.1921C13.7385 21.1879 13.7511 21.1845 13.7628 21.1811L13.756 21.1828C13.7822 21.1753 13.8016 21.1693 13.82 21.1634L13.8133 21.1651C13.8319 21.1593 13.8428 21.1542 13.8547 21.1499L13.8489 21.1523C13.8724 21.1431 13.8893 21.1363 13.9054 21.1278L13.8995 21.1303C13.9308 21.116 13.9543 21.1041 13.978 21.0915L13.973 21.0939C13.9771 21.0915 13.978 21.0905 13.9788 21.0898L13.9754 21.0922C13.9982 21.0796 14.0159 21.0677 14.0336 21.0559L14.0302 21.0583C14.0462 21.0474 14.0588 21.0396 14.0707 21.0304L14.0683 21.0321C14.0918 21.0144 14.1121 20.9984 14.1315 20.9814L14.1308 20.9822C14.1325 20.9805 14.1349 20.978 14.1366 20.9763C14.1526 20.9628 14.1679 20.9501 14.1812 20.9366L21.8872 13.2268C22.0678 13.0512 22.1791 12.8065 22.1791 12.5355C22.1791 12.0029 21.748 11.5716 21.2156 11.5716C21.2055 11.5716 21.1962 11.5716 21.1861 11.5724H21.1878C20.9279 11.5799 20.6942 11.6897 20.5255 11.8627L14.4635 17.9282V0.978648V0.966024C14.4635 0.433373 14.0324 0.00210996 13.5001 0.00210996H13.4848H13.4856L13.4861 0ZM0.976994 25.0722H0.963435C0.431048 25.0722 0 25.5035 0 26.0361C0 26.5687 0.432008 27 0.963435 27H0.977747H26.023H26.0366C26.569 27 27 26.5687 27 26.0361C27 25.5034 26.5689 25.0722 26.0366 25.0722H26.0223H0.976994Z" fill="black"/>
</svg>
