<svg width="45" height="34" viewBox="0 0 45 34" fill="none" xmlns="http://www.w3.org/2000/svg">
<path d="M38.1195 2.84745C35.1629 1.49806 32.0417 0.54076 28.8356 0C28.3969 0.78186 27.9999 1.58629 27.6464 2.40992C24.2312 1.89689 20.7583 1.89689 17.3431 2.40992C16.9894 1.58637 16.5924 0.781954 16.1539 0C12.9457 0.545327 9.82249 1.5049 6.86296 2.8545C0.987552 11.5203 -0.605181 19.9709 0.191185 28.3016C3.63197 30.8359 7.4832 32.7633 11.5775 34C12.4994 32.7639 13.3151 31.4526 14.0161 30.0799C12.6847 29.5842 11.3997 28.9726 10.1758 28.2522C10.4979 28.0193 10.8129 27.7794 11.1173 27.5465C14.6783 29.2159 18.565 30.0815 22.5001 30.0815C26.4352 30.0815 30.3218 29.2159 33.8828 27.5465C34.1907 27.797 34.5057 28.0369 34.8243 28.2522C33.5981 28.9737 32.3107 29.5865 30.9769 30.0834C31.677 31.4555 32.4929 32.7657 33.4156 34C37.5133 32.7683 41.3675 30.8418 44.8089 28.3051C45.7433 18.6443 43.2127 10.2713 38.1195 2.84745ZM15.0248 23.1783C12.8056 23.1783 10.9722 21.1706 10.9722 18.7007C10.9722 16.2308 12.7419 14.2055 15.0178 14.2055C17.2936 14.2055 19.1128 16.2308 19.0739 18.7007C19.035 21.1706 17.2865 23.1783 15.0248 23.1783ZM29.9753 23.1783C27.7525 23.1783 25.9262 21.1706 25.9262 18.7007C25.9262 16.2308 27.6959 14.2055 29.9753 14.2055C32.2547 14.2055 34.0598 16.2308 34.0208 18.7007C33.9819 21.1706 32.237 23.1783 29.9753 23.1783Z" fill="white"/>
</svg>
