<svg width="63" height="55" viewBox="0 0 63 55" fill="none" xmlns="http://www.w3.org/2000/svg">
<path d="M21.2199 20.5992C21.2198 21.3662 20.9244 21.9914 20.3334 22.4746C19.7424 22.9578 19.0532 23.1993 18.2659 23.1993C17.6419 23.1993 17.1741 23.0493 16.8626 22.7492C16.5511 22.4491 16.3132 22.0659 16.1489 21.5995C15.9846 21.1331 15.8534 20.6415 15.7553 20.1247C15.6571 19.6079 15.5259 19.1164 15.3616 18.6499C15.1973 18.1836 14.9509 17.8003 14.6224 17.5002C14.2938 17.2002 13.8015 17.0501 13.1454 17.0501C10.8806 17.0501 9.74823 18.3166 9.74823 20.8495C9.74823 21.7834 10.503 22.8499 12.0125 24.0493C13.5561 25.2832 14.7626 26.2668 15.632 27.0002C16.5015 27.7337 17.1496 28.3754 17.5763 28.9252C18.003 29.475 18.2657 29.9999 18.3644 30.4999C18.463 30.9999 18.5123 31.6496 18.5124 32.4491C18.5123 33.5498 18.2662 34.5251 17.7739 35.375C17.2815 36.2249 16.5921 36.9499 15.7057 37.5501C14.8192 38.1503 13.7769 38.6002 12.579 38.8998C11.3809 39.1993 10.0763 39.3492 8.66492 39.3492C7.516 39.3492 6.41645 39.2159 5.36619 38.9494C4.31594 38.6829 3.39691 38.2996 2.60909 37.7996C1.82128 37.2996 1.18946 36.6997 0.713679 35.9998C0.237881 35.2999 0 34.5167 0 33.65C0 31.4497 0.952088 30.3495 2.85626 30.3495C3.70967 30.3495 4.39056 30.6245 4.89891 31.1743C5.40724 31.7242 5.66142 32.4324 5.66142 33.2991C5.66142 33.5331 5.61234 33.8667 5.51417 34.3001C5.41601 34.7334 5.36692 35.0497 5.36693 35.2491C5.36692 35.9164 5.72803 36.4668 6.45025 36.9001C7.17243 37.3335 7.9272 37.5501 8.71452 37.5501C11.439 37.5501 12.8013 36.2999 12.8013 33.7995C12.8013 33.2665 12.588 32.7248 12.1613 32.1745C11.7346 31.6241 11.1929 31.0575 10.5363 30.4746C9.87969 29.8918 9.17403 29.3002 8.41927 28.7001C7.66452 28.0999 6.95885 27.4664 6.30225 26.7996C5.64565 26.1328 5.104 25.4495 4.67729 24.7496C4.25057 24.0497 4.03723 23.3163 4.03723 22.5493C4.03723 21.4833 4.27511 20.5168 4.75091 19.6501C5.22669 18.7834 5.87505 18.0501 6.69592 17.4499C7.51678 16.8497 8.46859 16.383 9.5514 16.0499C10.6342 15.7168 11.7997 15.5502 13.0477 15.5501C15.607 15.5502 17.6088 15.9916 19.0532 16.8746C20.4976 17.7576 21.2198 18.9991 21.2199 20.5992ZM48.3581 10.0006C47.3073 10.0006 46.388 9.71703 45.6002 9.14988C44.8124 8.58279 44.4185 7.86592 44.4185 6.99919C44.4185 5.93315 44.9113 4.90013 45.897 3.90014L47.422 2.34984C47.422 2.25019 47.3481 2.15863 47.2004 2.07518C47.0526 1.9918 46.8804 1.91681 46.6836 1.85014C46.4867 1.78355 46.2816 1.73347 46.0683 1.69987C45.8549 1.66634 45.6826 1.64954 45.5514 1.6495C44.6329 1.68311 43.837 2.09993 43.1639 2.89995C42.4908 3.70006 41.8752 4.76662 41.3173 6.0997C40.7594 7.43283 40.2097 8.98283 39.6683 10.7498C39.1269 12.5167 38.5442 14.3834 37.9202 16.3497H39.8404C40.8581 16.3498 41.6704 16.3581 42.2774 16.3749C42.8844 16.3917 43.3522 16.4166 43.6808 16.4497C44.0093 16.4828 44.2309 16.5326 44.3456 16.5992C44.4603 16.6658 44.5177 16.7495 44.5177 16.8502C44.5177 16.8838 44.5011 17.0254 44.4681 17.2751C44.435 17.5249 44.3694 17.7915 44.2713 18.0747C44.1731 18.3581 44.0501 18.6164 43.9024 18.8499C43.7547 19.0834 43.5661 19.2001 43.3367 19.2001H37.1825C35.0158 25.567 32.9642 31.0088 31.0274 35.5253C29.0907 40.0419 27.1049 43.7419 25.07 46.6253C23.0351 49.5086 20.877 51.6253 18.5957 52.9752C16.3144 54.325 13.7459 55 10.8902 55C10.201 55 9.54465 54.8583 8.9211 54.575C8.29757 54.2917 7.75618 53.9082 7.29691 53.4245C6.83765 52.9408 6.46855 52.3824 6.18956 51.7491C5.91062 51.1159 5.77113 50.4493 5.77111 49.7494C5.77113 48.5165 6.13197 47.5166 6.85366 46.7496C7.57538 45.9825 8.52723 45.599 9.70919 45.5991C10.6608 45.599 11.4483 45.9076 12.0719 46.5245C12.6954 47.1415 13.0072 47.9332 13.0072 48.8996C13.0072 49.2332 12.9088 49.6248 12.7119 50.0744C12.5151 50.5241 12.2937 50.9406 12.0478 51.3241C11.8019 51.7076 11.5806 52.0245 11.3837 52.2747C11.1869 52.525 11.0885 52.6333 11.0885 52.5997C11.0885 52.6994 11.1866 52.7493 11.383 52.7494C12.1382 52.7493 13.2871 52.3159 14.8297 51.4492C15.9786 50.7829 16.9878 49.7581 17.8572 48.3746C18.7267 46.9911 19.6129 45.0496 20.5159 42.5497C21.4189 40.0498 22.4284 36.9082 23.5442 33.1251C24.6601 29.342 26.0549 24.7003 27.7287 19.2001H22.3618C21.8038 19.2001 21.5249 18.7835 21.5249 17.9503C21.5249 16.8833 21.8694 16.3498 22.5586 16.3497H28.812C29.5993 13.9165 30.5757 11.6915 31.7411 9.67481C32.9066 7.65816 34.2115 5.93316 35.6559 4.49983C37.1003 3.06657 38.6594 1.95826 40.3332 1.17494C42.007 0.3917 43.7464 4.61066e-05 45.5514 0C46.4709 4.61066e-05 47.3409 0.124909 48.1613 0.374607C48.9816 0.624381 49.7118 0.974323 50.3519 1.42441C50.9919 1.87458 51.5008 2.41626 51.8785 3.04948C52.2561 3.68274 52.4449 4.39964 52.4449 5.20017C52.4449 6.59993 52.0592 7.74996 51.288 8.65019C50.5166 9.55048 49.54 10.0006 48.3581 10.0006ZM63 18.1991C63 18.2998 62.6719 18.6667 62.0159 19.3C61.3598 19.9332 60.5146 20.7333 59.4804 21.7002C58.4461 22.6671 57.281 23.7255 55.9848 24.8755C54.6886 26.0255 53.4005 27.1672 52.1204 28.3004C50.8402 29.4336 49.6174 30.4834 48.452 31.4497C47.2865 32.4161 46.3262 33.1826 45.5709 33.7492L45.7693 33.8499C46.7208 33.2833 48.0335 33 49.7073 33C49.9367 33 50.3058 33.075 50.8147 33.2251C51.3235 33.3751 51.8569 33.5333 52.4148 33.6996C52.9728 33.866 53.4979 34.0242 53.9902 34.1742C54.4825 34.3242 54.8273 34.3992 55.0247 34.3992C55.3202 34.3992 55.6237 34.266 55.9352 33.9994C56.2467 33.7329 56.4025 33.4497 56.4025 33.1496C56.4025 32.9827 56.3617 32.7243 56.2801 32.3744C56.1984 32.0244 56.1576 31.7661 56.1576 31.5993C56.1576 30.6665 56.5347 30.2 57.2889 30.2C58.5691 30.2 59.2092 30.85 59.2092 32.1501C59.2092 33.1165 59.0123 34.033 58.6187 34.8997C58.225 35.7664 57.6999 36.5248 57.0433 37.1748C56.3867 37.8248 55.6234 38.3497 54.7535 38.7495C53.8835 39.1493 52.9893 39.3492 52.0708 39.3492C51.4798 39.3492 50.8725 39.2327 50.249 38.9997C49.6255 38.7668 48.9854 38.5086 48.3288 38.2253C47.6722 37.942 47.0076 37.6837 46.335 37.4502C45.6623 37.2167 44.981 37.1 44.2908 37.1C43.9302 37.1 43.5283 37.1831 43.0851 37.3495C42.6418 37.5158 42.2233 37.6908 41.8297 37.8744C41.436 38.058 41.0915 38.2332 40.796 38.4001C40.5005 38.5669 40.3197 38.6502 40.2536 38.6502C40.2215 38.6502 40.1071 38.6335 39.9102 38.6C39.7134 38.5664 39.5083 38.5247 39.295 38.4748C39.0816 38.425 38.8845 38.3749 38.7037 38.3245C38.5229 38.2742 38.4325 38.2327 38.4325 38.2002C38.4325 37.6 38.7361 36.9248 39.3431 36.1746C39.9501 35.4243 40.9675 34.441 42.3954 33.2243C43.8233 32.0077 45.6861 30.4576 47.984 28.5742C50.2818 26.6908 53.1376 24.2995 56.5513 21.4003C56.2888 21.5 55.4844 21.5499 54.1382 21.5498C53.8757 21.5499 53.5067 21.525 53.0309 21.4751C52.5551 21.4253 52.0627 21.3671 51.5539 21.3004C51.045 21.2338 50.5528 21.1753 50.077 21.1249C49.6012 21.0746 49.2315 21.0494 48.9681 21.0494C48.5414 21.0494 48.123 21.1995 47.7128 21.4996C47.3026 21.7997 46.9089 22.1415 46.5318 22.5249C46.1547 22.9085 45.8101 23.2502 45.4981 23.5503C45.186 23.8504 44.9154 24.0004 44.686 24.0004C44.095 24.0004 43.7995 23.8336 43.7995 23.4999C43.7995 23.1327 43.9801 22.5493 44.3412 21.7497C44.7023 20.9502 45.1369 20.1421 45.6453 19.3252C46.1536 18.5084 46.6951 17.7917 47.2695 17.1752C47.844 16.5588 48.3445 16.2505 48.7713 16.2505C49.822 16.2505 50.6509 16.3253 51.2579 16.4748C51.8649 16.6244 52.4394 16.7826 52.9813 16.9494C53.5232 17.1162 54.1222 17.2747 54.7783 17.4247C55.4344 17.5747 56.3208 17.6498 57.4377 17.6498C57.7322 17.6498 58.1093 17.5747 58.5691 17.4247C59.0289 17.2747 59.5049 17.1162 59.9972 16.9494C60.4895 16.7826 60.9573 16.6244 61.4006 16.4748C61.8438 16.3253 62.1966 16.2505 62.4591 16.2505C62.6554 16.2505 62.7946 16.4672 62.8768 16.9005C62.9589 17.3339 63 17.7001 63 17.9992V18.1991Z" fill="white"/>
</svg>
