<svg width="26" height="18" viewBox="0 0 26 18" fill="none" xmlns="http://www.w3.org/2000/svg">
<path d="M3.83343 14.5509H22.1662C22.4515 14.5509 22.7253 14.427 22.9272 14.2067C23.1291 13.9863 23.2425 13.6873 23.2425 13.3756V1.17554C23.2425 0.863901 23.1291 0.564865 22.9272 0.344389C22.7253 0.123932 22.4518 0 22.1662 0H3.83343C3.54808 0 3.27428 0.123932 3.07241 0.344389C2.87055 0.564847 2.75708 0.863882 2.75708 1.17554V13.3756C2.75708 13.6872 2.87055 13.9863 3.07241 14.2067C3.27426 14.427 3.54806 14.5509 3.83343 14.5509V14.5509ZM3.18678 1.17554C3.18745 0.785808 3.47658 0.470053 3.83343 0.469308H22.1662C22.523 0.470036 22.8121 0.785808 22.8128 1.17554V13.3756C22.8122 13.7653 22.523 14.0808 22.1662 14.0816H3.83343C3.47658 14.0808 3.18747 13.7653 3.18678 13.3756V1.17554Z" fill="black"/>
<path d="M4.03687 13.5345H21.9632C22.1557 13.5345 22.3116 13.0514 22.3116 12.8411L22.3118 1.39856C22.3118 1.18829 22.1557 1.01779 21.9632 1.01779H4.03687C3.84434 1.01779 3.68823 1.18829 3.68823 1.39856V13.1541C3.68823 13.255 3.72509 13.3517 3.79038 13.4233C3.85567 13.4946 3.94427 13.5346 4.03687 13.5346V13.5345ZM4.11792 1.48722H21.8816V12.8398C21.8719 12.9179 21.8517 12.9938 21.8212 13.0653H4.11778L4.11792 1.48722Z" fill="black"/>
<path d="M13.1415 0.732247C13.1415 0.938635 12.8582 0.938635 12.8582 0.732247C12.8582 0.5261 13.1415 0.5261 13.1415 0.732247Z" fill="black"/>
<path d="M25.9369 14.9147C25.8964 14.8708 25.8418 14.8461 25.785 14.8458H0.214957C0.157888 14.8458 0.103263 14.8706 0.0630665 14.9147C0.0226513 14.9586 0 15.0183 0 15.0806C0 15.5962 0.187642 16.0909 0.521399 16.4555C0.855157 16.8203 1.30817 17.0252 1.78029 17.0252H24.2197C24.6918 17.0252 25.1448 16.8203 25.4786 16.4555C25.8124 16.091 26 15.5962 26 15.0806C25.9998 15.0183 25.9771 14.9589 25.9369 14.9147H25.9369ZM25.1745 16.1237C24.9216 16.4009 24.5779 16.5564 24.2197 16.5559H1.78025C1.45959 16.5569 1.14896 16.4322 0.905081 16.2047C0.661256 15.977 0.500264 15.6615 0.451409 15.3154H25.5485C25.5049 15.621 25.3741 15.904 25.1745 16.1238L25.1745 16.1237Z" fill="black"/>
</svg>
