<svg width="21" height="19" viewBox="0 0 21 19" fill="none" xmlns="http://www.w3.org/2000/svg">
<path d="M7.25342 1.88853H20.2732V3.24441H7.25342V1.88853Z" fill="black"/>
<path d="M7.25342 8.64371H20.2732V9.99959H7.25342V8.64371Z" fill="black"/>
<path d="M7.25342 15.3989H20.2732V16.7548H7.25342V15.3989Z" fill="black"/>
<path d="M2.56745 0C1.15201 0 0 1.15119 0 2.56668C0 3.98212 1.15177 5.13335 2.56745 5.13335C3.98236 5.13335 5.13335 3.98216 5.13335 2.56668C5.13335 1.15124 3.98216 0 2.56745 0ZM2.56745 4.11644C1.71267 4.11644 1.01691 3.42146 1.01691 2.56668C1.01691 1.71189 1.71243 1.01691 2.56745 1.01691C3.4217 1.01691 4.11644 1.71189 4.11644 2.56668C4.11644 3.42146 3.42146 4.11644 2.56745 4.11644Z" fill="black"/>
<path d="M2.56745 6.75517C1.15201 6.75517 0 7.90636 0 9.32185C0 10.7373 1.15177 11.8885 2.56745 11.8885C3.98236 11.8885 5.13335 10.7373 5.13335 9.32185C5.13335 7.90636 3.98216 6.75517 2.56745 6.75517ZM2.56745 10.8716C1.71267 10.8716 1.01691 10.1766 1.01691 9.32185C1.01691 8.46706 1.71243 7.77208 2.56745 7.77208C3.4217 7.77208 4.11644 8.46706 4.11644 9.32185C4.11644 10.1766 3.42146 10.8716 2.56745 10.8716Z" fill="black"/>
<path d="M2.56745 13.5099C1.15201 13.5099 0 14.661 0 16.0765C0 17.492 1.15177 18.6432 2.56745 18.6432C3.98236 18.6432 5.13335 17.492 5.13335 16.0765C5.13335 14.6611 3.98216 13.5099 2.56745 13.5099ZM2.56745 17.6263C1.71267 17.6263 1.01691 16.9313 1.01691 16.0765C1.01691 15.2217 1.71243 14.5268 2.56745 14.5268C3.4217 14.5268 4.11644 15.2217 4.11644 16.0765C4.11644 16.9313 3.42146 17.6263 2.56745 17.6263Z" fill="black"/>
</svg>
